/* XPM */
static char *_236100b359b4d3dbbea2a98bcffcd380sW3qAT5OQEHYb2T[] = {
/* columns rows colors chars-per-pixel */
"64 64 161 2 ",
"   c None",
".  c #D69F0F",
"X  c #D39D12",
"o  c #D7A00E",
"O  c #DAA30F",
"+  c #D7A012",
"@  c #DBA512",
"#  c #DFA814",
"$  c #D6A21B",
"%  c #DBA61A",
"&  c #DEA91C",
"*  c #E4AC0F",
"=  c #E8AF0E",
"-  c #ECB20F",
";  c #E4AC12",
":  c #E2AC1B",
">  c #E7B013",
",  c #ECB312",
"<  c #E7B11D",
"1  c #ECB61B",
"2  c #EDB81F",
"3  c #D7A423",
"4  c #D9A521",
"5  c #DDAA23",
"6  c #D7A628",
"7  c #D8A729",
"8  c #DAA92C",
"9  c #DCAD34",
"0  c #DCAE39",
"q  c #DFB034",
"w  c #DFB23E",
"e  c #E2AE23",
"r  c #E0AF2B",
"t  c #E6B223",
"y  c #EAB623",
"u  c #EDB923",
"i  c #E4B22A",
"p  c #E9B72A",
"a  c #EEBB2B",
"s  c #E4B433",
"d  c #E7B836",
"f  c #EEBE34",
"g  c #E6B73A",
"h  c #E7B93C",
"j  c #EDBE3A",
"k  c #EFC03B",
"l  c #F0C13F",
"z  c #DFB343",
"x  c #E5B945",
"c  c #EBBE43",
"v  c #E1B64B",
"b  c #E5BB4C",
"n  c #E8BD4B",
"m  c #E5BC52",
"M  c #E9BF52",
"N  c #E6BF5E",
"B  c #EEC143",
"V  c #EEC34B",
"C  c #F0C344",
"Z  c #F1C54C",
"A  c #EDC453",
"S  c #ECC55C",
"D  c #EFC95F",
"F  c #F1C752",
"G  c #F1C855",
"H  c #F2CA5C",
"J  c #F2CB5F",
"K  c #F3CB5E",
"L  c #F2CA5B",
"P  c #E7C264",
"I  c #EDC762",
"U  c #EFC965",
"Y  c #EFCA64",
"T  c #E7C46A",
"R  c #EBC76A",
"E  c #EFCA6B",
"W  c #EDC96A",
"Q  c #F1CA60",
"!  c #F2CB60",
"~  c #F3CC60",
"^  c #F2CC62",
"/  c #F3CD63",
"(  c #F3CC62",
")  c #F3CD65",
"_  c #F3CD64",
"`  c #F3CD66",
"'  c #F3CE66",
"]  c #F2CC64",
"[  c #F3CE68",
"{  c #F3CE69",
"}  c #F0CC6B",
"|  c #F3CE6A",
" . c #F3CF6A",
".. c #F4CF6A",
"X. c #F3CF6D",
"o. c #F3CE6A",
"O. c #F3D06E",
"+. c #F3D06F",
"@. c #F4D06E",
"#. c #F4D06F",
"$. c #F3D06F",
"%. c #ECCB73",
"&. c #F1CF72",
"*. c #F0CF7A",
"=. c #F1CF78",
"-. c #F4D172",
";. c #F4D173",
":. c #F1D07A",
">. c #F2D17B",
",. c #F2D27B",
"<. c #F4D379",
"1. c #F4D37B",
"2. c #F1D17E",
"3. c #F4D37D",
"4. c #F5D47C",
"5. c #F5D47D",
"6. c #F4D47E",
"7. c #F4D47C",
"8. c #EFD187",
"9. c #F3D587",
"0. c #F4D584",
"q. c #F4D684",
"w. c #F5D684",
"e. c #F5D786",
"r. c #F5D787",
"t. c #F5D685",
"y. c #F3D68A",
"u. c #F5D788",
"i. c #F2D58C",
"p. c #F6D88A",
"a. c #F6D88B",
"s. c #F6D88B",
"d. c #F3D791",
"f. c #F6DA90",
"g. c #F7DA90",
"h. c #F6DA92",
"j. c #F6DB92",
"k. c #F6DB94",
"l. c #F6DC96",
"z. c #F7DC96",
"x. c #F7DC97",
"c. c #F6DB94",
"v. c #F6DC98",
"b. c #F7DC98",
"n. c #F7DD98",
"m. c #F7DE9B",
"M. c #F7DE9D",
"N. c #F7DF9F",
"B. c #F7DD9B",
"V. c #F8DF9F",
"C. c #F8DE9D",
"Z. c #F7DFA0",
"A. c #F7DFA1",
"S. c #F8DFA0",
"D. c #F8DFA0",
"F. c #F7E0A5",
"G. c #F8E1A5",
"H. c #F7E1AB",
"J. c #F8E2AB",
"K. c #F9E5B5",
"L. c #F9E6B8",
/* pixels */
"                                                    - , , , 1 1 , 1 , , - -                                                     ",
"                                            - , 2 a C L #.<.w.q.u.q.4.#.L C a 2 , -                                             ",
"                                        , u C #.a.V.m.u.<.W ( K L K } *.u.c.V.a.O.C u ,                                         ",
"                                  , , f ..z.m.2.S s 4 $ + t B G G C t # & e d L 4.m.z.@.f , ,                                   ",
"                                , f 4.V.0.A 5 + . X X # j @.V f f V ..j # X X . @ i A r.N.<.k ,                                 ",
"                            - a &.S.5.h % + + X X X ; a ' t + + . # u ..f * + + # = = , k 5.N.#.u ,                             ",
"                          , Z x.i.C f V A c y , = < l } i + @ X X X = a ..C 2 , , u B F C f B s.m.Z ,                           ",
"                      , u O.S.K a G ( C j V ) ( ( ) L e X + , ; > ; , , u G ' K K ' A j C ^ L a K S.-.2 ,                       ",
"                    , a q.x.h 1 ^ c # + X + & i p e + X X ; , , , , , , , , 2 a i & + X ; ; c ) 1 k x.q.a -                     ",
"                  - f g.q.5 o V F + X X X + ; , ; @ X X X , , - , , , , , , - , X X + # # + ; V Z * i w.g.f -                   ",
"                , f x.<.5 X ; ) y X X X + ; , , , , # $ r l C Z Z C l a 2 , , ; + , , , , , ; u ^ ; X e 4.x.f ,                 ",
"              - a g.<.% X + < ) u @ ; ; , , , , u Z ..&.X.~ L F F L ~ ..#.@.Z y ; , , , , , , 1 } < + X < <.g.a ,               ",
"              u q.0.5 X X # f K , , , , , , f ' &.G f 2 , , 2 f f 2 , , 2 k L -.] f , , , , , , L l O X + y w.q.u               ",
"            , -.g.i X X # 1 } a , , , , a ' #.l 2 1 , , , , ;.J.J.-., , , - , 2 l &.' a , , , , u @.y O X ; u x.#.,             ",
"          , Z N.h X # 1 f O.B , , , , Z ;.Z 1 f ;.a.f , 1 f m.K.L.V.f 1 - f p.#.f 1 C ;.Z , , , , f } j : , - j S.Z -           ",
"          a x.D & n ^ ) K a , ; , 1 K ..u - a S.L.K.g.-.i.S.K.K.K.K.S.a.-.j.L.L.S.a , u ..K 2 , , , a L ' ' Z 2 K z.a           ",
"        , #.s.p ~ F u 2 , , , = 1 O.H , , , u G.K.K.K.K.L.L.K.K.K.K.K.L.L.K.K.K.S.u , , 1 G ..2 , , , , 2 u Z / u s.O.,         ",
"      , j V.C L C , , , , , , 2 O.Z , , , , G J.K.K.K.m.5.~ Z Z C Z ~ 4.V.K.K.K.J.G , - , , F ..1 , , , , , , Z L C N.l -       ",
"      , 4.5.f K 1 , , , , , , ~ G 1 ~ ^ k ;.K.K.K.t.Z j 2 - , Z 1 - , f a Z e.J.K.K.;.j ! ` 1 L ~ , , , , , , , / k ;.;.,       ",
"      f N.j C C , , , , , , Z ..1 ' K.K.J.K.K.n.Z 1 - j ..a , ..u , Z F , , 1 Z z.K.L.D.L.K.! 2 @.Z , , , , , , C Z l m.k       ",
"    , @.r.; F k - , , , , a ;.u u V.K.K.K.K.6.a , , , , j 0.M i.~ -.K , , , , , a w.K.K.K.K.V.u u ;.a , , , , , k G , r.' ,     ",
"    2 z.F = c F - , , , , ' C , , ' K.K.K.;.1 , , ; X @ , G J.K.K.a.u 2 : % ; 1 , 2 ;.K.K.K.` , , C / - , , , , Z B - F z.u     ",
"  - C m.u ; < } , , , , k #.1 , , ~ K.L.4.k F G S P P %.0.c.K.K.L.G.g.w.%.%.R } ' ! f 5.L.L.! , , , ;.k , , , 1 ) u , a m.C -   ",
"  , #.w., = # K k , , , / l - - k G.L.n.u , 2 k a a p f j K K.L.L.s.k a a p i e e u 2 a b.L.S.a , - C / , , , u ^ , , , 5.#.,   ",
"  2 g.G - > # K f - , u -.2 k l ;.K.K.Z , , , ; ; > , , 1 X.q.C.w.q.l f <.' t * X ; , , Z K.K.<.l k 2 -.u , , i ^ , , - G s.2   ",
"  a V.f , ; # ) u - , Z G a N.J.K.K.e., , , @ + + + @ > ` <.u X.d Z V.G.L.L.v.v X X ; , 1 q.K.K.J.V.a G V - > 1 ) 2 , , k m.a   ",
", C b.u > O j S , , , } k Z K.L.K.K.Z , , > X X X X 8 T J.C.*.0.%.b.K.K.K.K.L.K.8.x ; , , Z K.K.K.K.F f } , , > A B , - y x.C , ",
"- L u.1 ; f E i , , 2 -.2 H J.L.K.m.u , , # 6 z T i.F.L.K.L.L.L.L.K.K.L.K.K.K.K.L.J.%.a , 2 V.K.K.J.L 2 -.2 , # 3 R k - , s.H , ",
", X.4.- k W 8 @ , , a O., 1 L J.K.4., k Z ;.d.F.H.H.H.H.G.G.G.G.J.D.D.J.A.D.J.D.G.G.G.z.F , 4.L.K.L , , } a # X X 6 R B , <.O., ",
", 5.} u W 3 X @ , - k ^ , , k J.K.~ k F H K H H K K L L L L L L H H K G S K S ( L L K K L k ~ L.J.k , , ^ k @ X X X % E y } 5., ",
", q.K C v . X ; , - C L - , Z K.K.Z G #.O.O.-.O.X.X.-.X.&.X.-.&.&.#.&.#.#.#.-.&.#.-.#.-.-.G F L.K.Z , - L C , ; + X X z B K q.1 ",
"1 s.L G 9 X X ; , , Z F = , ^ K.K.Z 4.V.m.b.b.N.N.b.b.N.m.m.m.m.C.C.V.b.m.m.m.m.m.m.m.m.m.4.Z J.K.K , - F Z , 1 + X X 9 G L s., ",
", r.L A 9 X X > , , Z F u 4.G.K.K.Z l Z Z C Z Z A V Z V Z C Z Z Z Z Z Z Z Z Z Z Z Z Z Z Z C Z J.L.J.<.2 F Z , , + X X 9 F G u.1 ",
"1 0.( B z X X ; , , B G k J.L.K.K.G ;.H f k l k k f f f k k k l c s 9 9 9 9 d f k l f f / 5.F K.K.K.J.k G C , = X X X v C ( q., ",
", 5.X.t %.3 X # , , l K u G.L.K.K.K ;.G.C C 4.1 - * X o = 2 k G K s 3 X X X X ; j 5.u Z G.<.~ L.K.L.G.u ! j , , : . 5 ] u ..6., ",
", O.<.; h R 8 + , , a O.2 ~ s.K.K.4.H K.J.;.Z , , # X . * k j.n.b.g.0 X X X X * u F X.J.L.L <.L.K.s.' 2 X.a , , @ r ] C , <.&., ",
", K s., + i W 7 , , 2 -.2 - 2 n.K.m.C J.K.J.} 1 - > @ X 5 K n.K.L.b.N % X X X ; 2 -.K.K.G.C V.L.j.2 , 2 -.2 , , t ..f , , p.K - ",
"- B b.u + X g S , , , ) k , , ;.K.K.F 6.L.L.L.4.u , > + % Y m.K.L.b.{ 4 X @ , a e.K.K.K.q.Z K.K.-., - k ' , , , G C - , u m.C - ",
"  f N.d X X % ) u , , V G , - C K.K.r.Z J.L.K.K.s.f , , # f j.m.B.g.h . ; , j c.K.K.K.J.Z e.K.J.C , , G Z , , 2 ) 2 , , f V.a   ",
"  1 g.A X X + S a , , u ;.2 , / K.K.K.Z ;.K.K.K.L.N.k , , a l ~ ] j p ; , C V.L.K.K.L.<.Z K.K.K.' , 1 -.u , , u ( , , , G g.2   ",
"  , #.5.# X X S k - - , ' l k V.K.K.K.m.l x.K.K.K.K.G.F , , - 2 p - - , L G.K.K.K.L.j.C z.K.K.K.J.f j .., , ; e ( , , , w.-.,   ",
"  - C m.i + : ) 2 , , - k #.2 4.K.K.K.K.6.C N.K.K.K.K.J./ 1 - k j , 1 @.J.K.L.L.K.m.C 5.L.K.L.L.5.1 &.f , , ; $ U u , u b.B -   ",
"    u z.A - B F , , , , - H l k r.;.G.K.K.;.C j.K.K.K.K.K.;.u H ~ u 5.K.K.K.L.L.z.C -.K.L.G.;.e.f Z ` , , , ; X V C - F x.u     ",
"    , } q., F k , , , , - k ;.u , , Z J.K.K.5.C 4.J.K.K.K.K.t.k l p.L.K.L.L.J.;.C 5.K.K.G.Z , 1 2 -.a , , , + X g G , s.} ,     ",
"      f G.k B C , , , , , , C @., , , F J.K.K.m.Z Z t.G.L.L.L.m.m.L.L.L.G.w.Z F z.L.K.J.G , , , ..Z , , , > X X x C l V.k       ",
"      , <.5.f ^ , , , , , , , K L , , a G.K.K.K.K.r.Z Z L ;.p.j.j.r.;.L C Z r.J.K.K.K.G.a , , L ! , , , ; + X $ I f 4.4.,       ",
"      , f N.C L C , , , , , , 1 @.F , C K.K.K.K.K.K.K.m.4.~ G Z Z F K 4.V.K.K.L.L.L.K.J.C - F ..2 , , @ X X X x L C V.f -       ",
"        , O.s.a ) A y < > , , - 1 @.H 2 G G.x.O.z.K.K.K.K.K.K.K.K.K.L.L.L.K.K.g.' z.G.L 2 L ..1 , , , + $ 5 n ^ a s.-.,         ",
"          a z.K 1 Z ] ] S f ; ; , 2 ^ O.u f a , u G m.L.K.K.K.K.L.L.K.K.L.b.F u - a f u ..K 1 , , , p S { ] n < ! m.a           ",
"          , Z V.j - % : f ..j # , , , V ;.C , - , - ' K.K.K.6.;.-.w.J.L.L.) - , ; 1 C ;.Z , , , , j ' h : ; @ j V.Z ,           ",
"            , #.c.a ; * * 2 } s ; , , , a ) O.C 1 - l 6.V.6.1 , , 1 w.b.w.f - : x R ] p , , , , p } t + X X p g.X.,             ",
"              u q.q.2 , = ; f K > , , , , , f ) #.F k u u 2 - - - - u u u f L %.P 9 # , , , , , L j O X + < e.e.2               ",
"              , a z.4.1 , = : ] 1 , , , , , , , u V ' -.O.^ H F F H K @.-...Z e X X X @ , , , < ' < X @ < <.z.a ,               ",
"                - a z.4.u , > ] y , , , , , , , > ; , 2 a k C Z Z C k a 2 , - ; X X X X X X ; u ' ; X t 5.z.a ,                 ",
"                  - f g.q.a , Z F > , , , , , , , , , , , , - , , - , , , , , ; X X X X X X ; Z Z * p q.g.f -                   ",
"                    , a q.g.j 1 ) C , - , , 1 a a 2 , , , , , , , , , , , , u a i : + X . : C / 2 j h.q.a ,                     ",
"                      , 2 -.V.K u L ^ C l Z ) ^ K ~ H u , , , , , , , , u L ) K / ' F d c ' L a K G.#.2 ,                       ",
"                          , Z m.s.C f B A c i @ # < k O.k - , ; ; ; - a O.k 1 , , 2 C F C f C p.m.Z ,                           ",
"                            - u O.G.4.k # . . X + + # a ~ u > # @ ; 2 ' k - , , , , , , j 5.V.-.u ,                             ",
"                                , k ;.m.y.A e @ + X + @ h ' B k f V } l - , - , , u F u.S.4.f ,                                 ",
"                                  , , k O.x.m.5.A d t @ @ t B F F C u , , u k F 5.m.z.X.f , ,                                   ",
"                                        - u C O.d.N.m.y.;.O.D H H H O.4.s.m.V.s.#.C 2 ,                                         ",
"                                            , , 2 a B K O.4.r.s.e.t.5.O.K C k , , ,                                             ",
"                                                    - - , , 1 , 1 , , , - -                                                     "
};
