/* XPM */
static char *_629972126750[] = {
/* columns rows colors chars-per-pixel */
"16 16 157 2 ",
"   c #DCA81E",
".  c #E6B11D",
"X  c #E5B01E",
"o  c #ECB71D",
"O  c #ECB71E",
"+  c #EDB71F",
"@  c #DEAB27",
"#  c #E1AE25",
"$  c #E0AD27",
"%  c #E1AF27",
"&  c #E3B026",
"*  c #E3B027",
"=  c #E5B225",
"-  c #E6B226",
";  c #E7B427",
":  c #ECB723",
">  c #E9B625",
",  c #EAB624",
"<  c #E8B427",
"1  c #EAB727",
"2  c #EDB922",
"3  c #EBB827",
"4  c #ECB824",
"5  c #EDB925",
"6  c #EDBA25",
"7  c #EEBA25",
"8  c #EDB926",
"9  c #ECB827",
"0  c #ECB927",
"q  c #E5B328",
"w  c #E7B429",
"e  c #E1B02D",
"r  c #E3B22D",
"t  c #E6B42D",
"y  c #E8B529",
"u  c #E9B629",
"i  c #EAB729",
"p  c #E9B72C",
"a  c #E9B72D",
"s  c #E8B62E",
"d  c #EBB829",
"f  c #EBB82A",
"g  c #EBB92A",
"h  c #ECB928",
"j  c #ECB929",
"k  c #EDBA29",
"l  c #EEBA28",
"z  c #ECB92A",
"x  c #EDBA2A",
"c  c #EDBA2B",
"v  c #EBB92E",
"b  c #EDBB2E",
"n  c #EEBC2D",
"m  c #E2B231",
"M  c #E8B731",
"N  c #EEBD32",
"B  c #EFBE32",
"V  c #EABA34",
"C  c #E6B73A",
"Z  c #E7B93E",
"A  c #E7B93F",
"S  c #E7BA3F",
"D  c #E9BA39",
"F  c #E8B93A",
"G  c #E9BA3A",
"H  c #EABB3A",
"J  c #ECBD39",
"K  c #EDBE39",
"L  c #ECBD3A",
"P  c #EFBF3A",
"I  c #E8BA3E",
"U  c #EABC3C",
"Y  c #EABC3F",
"T  c #EBBE3F",
"R  c #EDBF3F",
"E  c #EFC03A",
"W  c #EFC03D",
"Q  c #EFC13D",
"!  c #EEC03E",
"~  c #E7BB47",
"^  c #EABD43",
"/  c #EABF48",
"(  c #EBBF48",
")  c #E8BF51",
"_  c #ECC048",
"`  c #ECC049",
"'  c #EDC149",
"]  c #EDC249",
"[  c #EDC24A",
"{  c #EEC24A",
"}  c #EEC34A",
"|  c #EFC34A",
" . c #EFC44D",
".. c #F0C242",
"X. c #F0C344",
"o. c #F0C448",
"O. c #F0C449",
"+. c #F0C44A",
"@. c #F1C54A",
"#. c #F0C54D",
"$. c #F1C54D",
"%. c #F1C64D",
"&. c #F1C64E",
"*. c #EEC450",
"=. c #EFC550",
"-. c #EFC551",
";. c #EBC255",
":. c #EEC555",
">. c #F0C650",
",. c #F1C650",
"<. c #F1C750",
"1. c #F1C858",
"2. c #F1C958",
"3. c #F2C958",
"4. c #F2C959",
"5. c #F0C85B",
"6. c #F2C95A",
"7. c #F2CA5B",
"8. c #F1CA5D",
"9. c #F0C95E",
"0. c #F2CB5F",
"q. c #F2CB60",
"w. c #F2CB61",
"e. c #F2CC60",
"r. c #F1CB65",
"t. c #F3CD66",
"y. c #F2CD67",
"u. c #F3CE68",
"i. c #F2CE6E",
"p. c #F3D06E",
"a. c #F3D06F",
"s. c #F4D171",
"d. c #F4D172",
"f. c #F4D174",
"g. c #F4D276",
"h. c #F4D277",
"j. c #F3D37B",
"k. c #F4D379",
"l. c #F4D37A",
"z. c #F5D47E",
"x. c #F5D47F",
"c. c #F4D480",
"v. c #F5D682",
"b. c #F2D486",
"n. c #F6D98A",
"m. c #F6D88B",
"M. c #F6D98D",
"N. c #F5D98E",
"B. c #F6D98F",
"V. c #F6DA90",
"C. c #F6DA91",
"Z. c #F6DB92",
"A. c #F6DB93",
"S. c #F6DB95",
"D. c #F7DC97",
"F. c #F7DD98",
"G. c None",
/* pixels */
"G.G.G.G.G.` ` *.*.` } G.G.G.G.G.",
"G.G.G.#.*.C r & < s H <.<.G.G.G.",
"G.G.` I & X q u x x X < ^ ` G.G.",
"G. .S u : Q 1.u.t.1.Q 2 u Q #.G.",
"G.>.5 5 #.a.g.q.q.g.a.#.5 5 <.G.",
"+.J + B k.8.s i.t.V 8.k.B o E +.",
"+.s x t.s.= ~ c.N.b.^ s.t.d v +.",
" .* 3 e.a.t.j.z.v.v.g.s.e.; @  .",
"*.@ x k.v.1.M *.) m 1.v.k.d * *.",
"` e x #.A.N.H 1.;.S C.C.#.x b +.",
"` H + X.v.D.D.1.1.F.S.v.X.X J +.",
"G.<.5 2 ..n.C.C.C.C.n...3 # *.G.",
"G.#.Q d 5 E 8.s.s.5.I 5 ; I #.G.",
"G.G.` Q 5 O x x x x   = Y ` G.G.",
"G.G.G.<.>.G t d 3 b E #.#.G.G.G.",
"G.G.G.G.G.` ( >.>.X.+.G.G.G.G.G."
};
