/* XPM */
static char *_5b60a2b0c2a4ad09e770300df2ec2a9lNg8yaoVvxr571eV[] = {
/* columns rows colors chars-per-pixel */
"32 32 131 2 ",
"   c None",
".  c #D59E13",
"X  c #D7A113",
"o  c #DCA513",
"O  c #DFA811",
"+  c #D6A21B",
"@  c #DAA51A",
"#  c #DDA91E",
"$  c #E4AC13",
"%  c #E0AB1C",
"&  c #ECB414",
"*  c #E6B11C",
"=  c #ECB51B",
"-  c #EDB81F",
";  c #D9A624",
":  c #DDAA22",
">  c #DAA92B",
",  c #E2AE21",
"<  c #E5B123",
"1  c #EAB622",
"2  c #EDB923",
"3  c #E3B12A",
"4  c #E9B62A",
"5  c #EEBB2A",
"6  c #E4B437",
"7  c #E9B730",
"8  c #EEBD34",
"9  c #E4B63C",
"0  c #E7B93F",
"q  c #ECBD3A",
"w  c #EFC03B",
"e  c #F0C13D",
"r  c #E2B642",
"t  c #E7BB45",
"y  c #EBBE41",
"u  c #E0B74E",
"i  c #E7BC4B",
"p  c #EABE49",
"a  c #E7BD51",
"s  c #EFC143",
"d  c #EDC24C",
"f  c #F0C344",
"g  c #F1C54C",
"h  c #ECC351",
"j  c #EDC65E",
"k  c #EFC85F",
"l  c #F1C750",
"z  c #F1C855",
"x  c #F2CB5F",
"c  c #F2CA5C",
"v  c #F2CA5B",
"b  c #EDC762",
"n  c #EEC862",
"m  c #EFC962",
"M  c #EECA6A",
"N  c #F2CC62",
"B  c #F0CB64",
"V  c #F0CB66",
"C  c #F1CC64",
"Z  c #F3CD64",
"A  c #F2CD65",
"S  c #F3CD65",
"D  c #F1CC66",
"F  c #F1CC67",
"G  c #F2CD66",
"H  c #F3CD66",
"J  c #F3CE67",
"K  c #F2CC64",
"L  c #F3CE68",
"P  c #F3CE69",
"I  c #F3CE6A",
"U  c #F2CE6D",
"Y  c #F3CF6C",
"T  c #F3D06E",
"R  c #EDCD7C",
"E  c #F3D073",
"W  c #F4D171",
"Q  c #F2D075",
"!  c #F4D274",
"~  c #F4D275",
"^  c #F4D273",
"/  c #F4D378",
"(  c #F4D37A",
")  c #F5D37A",
"_  c #F4D37B",
"`  c #F5D37B",
"'  c #F5D47B",
"]  c #F4D47C",
"[  c #F5D47C",
"{  c #F5D47D",
"}  c #F5D47E",
"|  c #F5D57F",
" . c #F5D47C",
".. c #EED084",
"X. c #F5D580",
"o. c #F5D683",
"O. c #F5D684",
"+. c #F5D685",
"@. c #F5D785",
"#. c #F5D786",
"$. c #F6D786",
"%. c #F5D683",
"&. c #F3D78C",
"*. c #F6D98B",
"=. c #F6D98C",
"-. c #F6D98E",
";. c #F6D98C",
":. c #F4DA95",
">. c #F6DB93",
",. c #F5DB9A",
"<. c #F7DE9C",
"1. c #F7DFA0",
"2. c #F7DFA1",
"3. c #F7E0A6",
"4. c #F8E0A2",
"5. c #F8E0A3",
"6. c #F8E0A5",
"7. c #F8E1A7",
"8. c #F8E0A4",
"9. c #F8E2AB",
"0. c #F8E3AE",
"q. c #F9E3AE",
"w. c #F8E2AA",
"e. c #F8E3B1",
"r. c #F9E4B1",
"t. c #F9E5B5",
"y. c #F9E6B6",
"u. c #F9E5B4",
"i. c #F9E6B8",
"p. c #F9E7B9",
"a. c #F9E6B8",
/* pixels */
"                        8 f d z z z f w                         ",
"                  8 z J b a d j v d d k J z 8                   ",
"              5 v m t : X : q 3 3 w , @ < s N j 5               ",
"            f J k s q q 8 y : O O * w 8 q q f c Z f             ",
"          g b 0 0 @ o < < X O & = & & 2 : O $ q q B g           ",
"        g b + 8 < o O & 4 9 s s f f e 4 $ & & 2 0 @ m g         ",
"      f b + % w & & 8 f s 5 - c x - 2 f d 8 & & e % % c f       ",
"    5 J 9 8 s 1 = e w l *.v J 0.q.Z v =.g w e = 2 w q e Z 5     ",
"    v v e 2 & = f 5 = ~ p.6.*.] ' =.6.a.! & 8 g = & - e v z     ",
"  8 J f & & & f l ' X.4.L e 8 8 5 8 8 I 2.%.) g f & & = f Z w   ",
"  z s q & & 8 e g y.4.f * * h &.| e * - g <.y.g 8 8 & & e g l   ",
"  Z 1 0 2 & f & v 4.f w q y J r.4.z p 0 8 g 6.z = f & 2 w 2 Z   ",
"w c & 8 1 5 f T 4.L & $ o $ z E U W @.i @ & B 2.I f 5 1 8 & x w ",
"g g * 0 & q g q.q.5 * > u R 7.:.,.y.a.u...q 8 4.9.g q $ 0 - g f ",
"l g 0 # & f 2 X.=.w v Q o.@.@.o.@.@.@.@.@.` f =.] 2 s o + 0 g z ",
"z v > o & s * $.@.L ] ` ' ' ` ` ` ` ` ` ` [ I @.o.- s & . > v z ",
"z j > O & e Z u.%.c g g f d f g d t t p g g c o.r.Z f & . > z z ",
"g d 9 # & f v 7.>.%.T e $ X 1 I V ; . @ f T @.>.6.v f & # q g l ",
"g h # r & e 5 l 4.' q.T - o t 6.9.r X % W r.] 4.z 5 e & q 2 l g ",
"8 k . 6 2 5 e e q.] <.y.' 1 2 U U < 2 | y.<.] q.e 8 5 1 e & c 8 ",
"  J : 6 2 & f x r.6.! 9.y.=.8 2 2 8 >.y.6.! 6.y.x f & % q 2 B   ",
"  z s e & & w f g =.<.W <.y.<.z c <.y.<.! <.=.g f 8 & @ q g z   ",
"  8 J f = & & f 5 8 q.9.] ' >.=.=.=.[ ] 9.9.8 5 f & $ + y Z 8   ",
"    v c 8 1 & = f f $.>.4.4.>.$.*.>.6.4.,.$.e f = $ ; 9 c v     ",
"    5 Z e 6 y 1 = f g 5 8 >.y.>.,.r.,.8 5 g y = 2 q 6 0 Z 5     ",
"      f N = = y & & 5 f e l x 2 2 c g q r 4 & & y # # K f       ",
"        g B = 8 2 & & & 4 8 f f f e q 4 . . $ 1 q @ c g         ",
"          g B q 8 = & - 2 & & & & & & 1 , + @ q q B g           ",
"            f Z c f q 0 8 f - & & - q 8 8 q f c Z f             ",
"              5 v Z p : . % 0 5 4 q 2 & 2 g Z v 8               ",
"                  8 l J j a d v v g z c Z z 8                   ",
"                        8 g l z z l f e                         "
};
